<svg xmlns="http://www.w3.org/2000/svg" xmlns:xlink="http://www.w3.org/1999/xlink" width="117" height="105"><defs><path id="a" d="M6.54 31.433v23.054c-.137 2.971-.855 9.786-4.362 17.76-4.717 10.714-.814 9.437 2.682 8.556 3.496-.878 11.302-4.32 13.74-.08 2.438 4.237 4.472 7.917 10.162 5.517 5.692-2.397 8.374-3.197 9.186-3.197h1.105c.812 0 3.495.8 9.185 3.197 5.692 2.4 7.725-1.28 10.163-5.517 2.438-4.24 10.244-.798 13.74.08 3.496.881 7.397 2.158 2.682-8.556-3.65-8.297-4.278-15.326-4.376-18.088V31.433C70.447 14.073 56.141 0 38.494 0 20.846 0 6.54 14.072 6.54 31.433zm35.584-4.592c0-5.358 2.79-9.701 6.234-9.701 3.443 0 6.231 4.343 6.231 9.701 0 5.36-2.788 9.703-6.231 9.703-3.445 0-6.234-4.344-6.234-9.703zm-19.725 0c0-5.358 2.79-9.701 6.232-9.701s6.233 4.343 6.233 9.701c0 5.36-2.79 9.703-6.233 9.703-3.441 0-6.232-4.344-6.232-9.703zm16.587 21.81c4.643-.119 5.076 6.824.446 7.196a11.671 11.671 0 01-1.875 0c-4.63-.372-4.198-7.315.446-7.195a20.034 20.034 0 00.983 0z"/></defs><g fill="none" fill-rule="evenodd"><path fill="#FFF" fill-rule="nonzero" d="M116.474 29.745L100.666 2.07C99.944.765 98.59 0 97.008 0c-1.58 0-2.89.765-3.658 2.07L77.542 29.745a4.309 4.309 0 000 4.185c.723 1.305 2.078 2.07 3.613 2.07h31.57c1.536 0 2.89-.765 3.613-2.07.859-1.305.859-2.88.136-4.185zM99.31 29.43h-4.2v-3.645h4.2v3.645zm0-5.76h-4.2V13.23h4.2v10.44z"/><g transform="translate(0 18)"><mask id="b" fill="#fff"><use xlink:href="#a"/></mask><path fill="#FFF" d="M-1 87h78V-1H-1z" mask="url(#b)"/></g></g></svg>
