<svg width="189" height="189" xmlns="http://www.w3.org/2000/svg">
  <defs>
    <linearGradient x1="13.3%" y1="11.865%" y2="93.168%" id="a">
      <stop stop-color="#2B5993" offset="0%"/>
      <stop stop-color="#00AEF0" offset="100%"/>
    </linearGradient>
  </defs>
  <g fill="none" fill-rule="evenodd">
    <g fill-rule="nonzero">
      <path d="M148 80c0 29.271-23.729 53-53 53s-53-23.729-53-53 23.729-53 53-53 53 23.729 53 53" fill="#FFF"/>
      <path d="M142.68 109.526V63.568C142.68 28.459 113.707 0 77.966 0c-35.744 0-64.72 28.46-64.72 63.568v46.623c-.278 6.008-1.73 19.79-8.834 35.915-9.553 21.667-1.649 19.086 5.432 17.302 7.08-1.775 22.89-8.733 27.83-.16 4.936 8.567 9.055 16.01 20.581 11.157 11.527-4.849 16.959-6.466 18.605-6.466h2.237c1.645 0 7.079 1.617 18.604 6.466 11.527 4.853 15.645-2.59 20.584-11.158 4.937-8.572 20.746-1.614 27.828.161 7.08 1.784 14.98 4.365 5.431-17.302-7.391-16.778-8.663-30.994-8.862-36.58h-.002z" fill="url(#a)" transform="translate(16 6)"/>
      <path d="M66.094 103.67c4.472 0 8.122-3.66 8.122-8.144 0-2.104-.821-3.934-2.008-5.399l10.22-16.38a9.17 9.17 0 0 0 2.282.275c1.46 0 2.83-.366 4.015-1.098l7.94 7.687c-.64 1.098-.913 2.47-.913 3.843 0 4.484 3.65 8.144 8.122 8.144 4.471 0 8.121-3.66 8.121-8.144 0-2.105-.73-3.935-2.007-5.399l9.673-15.739c.73.183 1.46.275 2.19.275 4.471 0 8.122-3.66 8.122-8.144s-3.65-8.144-8.122-8.144c-4.472 0-8.122 3.66-8.122 8.144 0 2.104.73 3.934 2.008 5.399l-9.857 15.647a8.977 8.977 0 0 0-2.19-.274c-1.46 0-2.829.366-4.015 1.098l-7.94-7.687c.64-1.098.913-2.379.913-3.752 0-4.483-3.65-8.144-8.121-8.144-4.472 0-8.122 3.66-8.122 8.144 0 2.105.73 3.935 2.008 5.4L68.102 87.656a8.977 8.977 0 0 0-2.19-.275c-4.472 0-8.122 3.66-8.122 8.144.091 4.484 3.741 8.144 8.304 8.144v.001z" stroke="#FFF" stroke-width="7.238" fill="#FFF"/>
    </g>
    <path d="M0 0h189v189H0z"/>
  </g>
</svg>
