<svg width="633" height="248" xmlns="http://www.w3.org/2000/svg" xmlns:xlink="http://www.w3.org/1999/xlink">
  <defs>
    <linearGradient x1="13.3%" y1="11.865%" y2="93.168%" id="a">
      <stop stop-color="#2B5993" offset="0%"/>
      <stop stop-color="#00AEF0" offset="100%"/>
    </linearGradient>
    <path id="b" d="M.065.175h5.264v5.299H.065z"/>
  </defs>
  <g fill="none" fill-rule="evenodd">
    <path d="M132 74c0 29.271-23.729 53-53 53s-53-23.729-53-53 23.729-53 53-53 53 23.729 53 53M177 124.939V32.06h14.596v92.878H177zm58.162 0l-18.178-67.27v67.27h-13.137V32.06h18.311l14.994 55.594V32.061h13.004v92.878h-14.994zm25.388-70.587c0-14.86 7.298-23.352 21.495-23.352 14.198 0 21.496 8.492 21.496 23.352v2.919h-13.8v-3.848c0-6.634-2.654-9.155-7.298-9.155s-7.298 2.521-7.298 9.155c0 19.106 28.529 22.689 28.529 49.225 0 14.86-7.431 23.352-21.761 23.352-14.33 0-21.761-8.492-21.761-23.352v-5.705h13.8v6.634c0 6.634 2.918 9.022 7.563 9.022 4.644 0 7.563-2.388 7.563-9.022 0-19.106-28.528-22.689-28.528-49.225zm53.252 70.587V32.06h14.596v92.878h-14.596zm48.874-38.478V73.193h20.434v29.455c0 14.86-7.43 23.352-21.761 23.352-14.33 0-21.761-8.492-21.761-23.352V54.352c0-14.86 7.43-23.352 21.761-23.352 14.33 0 21.761 8.492 21.761 23.352v9.022h-13.8v-9.95c0-6.635-2.919-9.156-7.563-9.156s-7.563 2.521-7.563 9.155v50.154c0 6.634 2.919 9.022 7.563 9.022s7.563-2.388 7.563-9.022V86.46h-6.634zm46.22-1.327v39.805H394.3V32.06h14.596v39.805h16.586V32.06h14.861v92.878h-14.861V85.134h-16.586zM448.48 45.33V32.06h45.115V45.33h-15.26v79.609h-14.595v-79.61h-15.26zm51.395 9.022c0-14.86 7.298-23.352 21.496-23.352 14.197 0 21.495 8.492 21.495 23.352v2.919h-13.8v-3.848c0-6.634-2.653-9.155-7.297-9.155s-7.298 2.521-7.298 9.155c0 19.106 28.528 22.689 28.528 49.225 0 14.86-7.43 23.352-21.761 23.352-14.33 0-21.76-8.492-21.76-23.352v-5.705h13.799v6.634c0 6.634 2.919 9.022 7.563 9.022s7.563-2.388 7.563-9.022c0-19.106-28.528-22.689-28.528-49.225z" fill="#FFF"/>
    <path d="M142.68 109.526V63.568C142.68 28.459 113.707 0 77.966 0c-35.744 0-64.72 28.46-64.72 63.568v46.623c-.278 6.008-1.73 19.79-8.834 35.915-9.553 21.667-1.649 19.086 5.432 17.302 7.08-1.775 22.89-8.733 27.83-.16 4.936 8.567 9.055 16.01 20.581 11.157 11.527-4.849 16.959-6.466 18.605-6.466h2.237c1.645 0 7.079 1.617 18.604 6.466 11.527 4.853 15.645-2.59 20.584-11.158 4.937-8.572 20.746-1.614 27.828.161 7.08 1.784 14.98 4.365 5.431-17.302-7.391-16.778-8.663-30.994-8.862-36.58z" fill="url(#a)"/>
    <path d="M50.094 97.67c4.472 0 8.122-3.66 8.122-8.144 0-2.104-.821-3.934-2.008-5.399l10.22-16.38a9.17 9.17 0 0 0 2.282.275c1.46 0 2.83-.366 4.015-1.098l7.94 7.687c-.64 1.098-.913 2.47-.913 3.843 0 4.484 3.65 8.144 8.122 8.144 4.471 0 8.121-3.66 8.121-8.144 0-2.105-.73-3.935-2.007-5.399l9.673-15.739c.73.183 1.46.275 2.19.275 4.471 0 8.122-3.66 8.122-8.144s-3.65-8.144-8.122-8.144c-4.472 0-8.122 3.66-8.122 8.144 0 2.104.73 3.934 2.008 5.399L89.88 70.493a8.977 8.977 0 0 0-2.19-.274c-1.46 0-2.829.366-4.015 1.098l-7.94-7.687c.64-1.098.913-2.379.913-3.752 0-4.483-3.65-8.144-8.121-8.144-4.472 0-8.122 3.66-8.122 8.144 0 2.105.73 3.935 2.008 5.4L52.102 81.656a8.977 8.977 0 0 0-2.19-.275c-4.472 0-8.122 3.66-8.122 8.144.091 4.484 3.741 8.144 8.304 8.144z" fill="#FFF" fill-rule="nonzero" stroke="#FFF" stroke-width="7.238"/>
    <g>
      <path d="M438.298 182.216h10v14.113c0 7.12-3.636 11.19-10.65 11.19-7.012 0-10.648-4.07-10.648-11.19v-23.141c0-7.121 3.636-11.188 10.648-11.188 7.014 0 10.65 4.067 10.65 11.188v4.324h-6.752v-4.769c0-3.178-1.428-4.385-3.702-4.385-2.273 0-3.702 1.207-3.702 4.385v24.032c0 3.179 1.43 4.324 3.702 4.324 2.274 0 3.702-1.145 3.702-4.324v-8.201h-3.248v-6.358zM460.316 206.984h-7.142v-44.5h7.142v19.071h8.116v-19.07h7.273v44.5h-7.273v-19.073h-8.116zM480.318 173.189c0-7.12 3.831-11.189 10.843-11.189 7.015 0 10.845 4.07 10.845 11.189v23.141c0 7.12-3.83 11.19-10.845 11.19-7.012 0-10.843-4.07-10.843-11.19v-23.141zm7.142 23.587c0 3.178 1.431 4.386 3.701 4.386 2.274 0 3.702-1.208 3.702-4.386v-24.032c0-3.179-1.428-4.387-3.702-4.387-2.27 0-3.7 1.208-3.7 4.387v24.032zM516.237 162c6.949 0 10.52 4.07 10.52 11.19v1.398h-6.753v-1.844c0-3.179-1.3-4.386-3.575-4.386-2.27 0-3.571 1.207-3.571 4.386 0 9.154 13.963 10.872 13.963 23.586 0 7.12-3.635 11.188-10.65 11.188-7.01 0-10.649-4.067-10.649-11.188v-2.734h6.753v3.179c0 3.177 1.43 4.322 3.702 4.322 2.272 0 3.7-1.145 3.7-4.322 0-9.156-13.96-10.872-13.96-23.585 0-7.12 3.57-11.19 10.52-11.19M528.304 162.484h22.076v6.36h-7.465v38.142h-7.144v-38.143h-7.467zM561.133 181.238h9.806v6.357h-9.806v13.033h12.339v6.359h-19.48v-44.503h19.48v6.358h-12.339zM592.678 206.984c-.388-1.145-.65-1.845-.65-5.466v-6.994c0-4.132-1.428-5.658-4.676-5.658h-2.465v18.118h-7.143v-44.5h10.78c7.4 0 10.585 3.37 10.585 10.236v3.496c0 4.576-1.494 7.565-4.677 9.027 3.57 1.46 4.739 4.831 4.739 9.472v6.866c0 2.162.065 3.751.779 5.403h-7.272zm-7.791-38.142v13.666h2.792c2.663 0 4.283-1.142 4.283-4.704v-4.386c0-3.18-1.102-4.576-3.633-4.576h-3.442zM610.035 192.236l-9.026-29.752h7.466l5.459 20.28 5.453-20.28h6.818l-9.026 29.752v14.748h-7.144z" fill="#FFF"/>
      <g transform="translate(627.668 162.484)">
        <mask id="c" fill="#fff">
          <use xlink:href="#b"/>
        </mask>
        <path d="M2.7.175c1.495 0 2.629 1.11 2.629 2.65 0 1.537-1.134 2.649-2.629 2.649-1.498 0-2.635-1.112-2.635-2.65C.065 1.284 1.202.175 2.7.175zm0 4.78c1.191 0 2.084-.894 2.084-2.13C4.784 1.588 3.891.69 2.7.69 1.504.691.611 1.589.611 2.824c0 1.237.893 2.131 2.09 2.131zm.377-.55c-.04-.094-.055-.146-.055-.442v-.34c0-.34-.12-.458-.384-.458h-.196v1.24h-.574V1.24h.875c.591 0 .856.275.856.83v.066c0 .377-.123.615-.395.733.295.117.395.384.395.763v.34c0 .17.006.302.067.433h-.589zM2.442 1.76v.887h.23c.216 0 .35-.089.35-.377v-.133c0-.259-.09-.377-.308-.377h-.272z" fill="#FFF" mask="url(#c)"/>
      </g>
    </g>
    <g fill="#FFF">
      <path d="M393.783 216.15c.097-.308.184-.62.292-.925.234-.658.493-1.308.715-1.97.38-1.133.79-2.259 1.089-3.413.237-.917.29-1.88.493-2.809.167-.765.468-1.5.646-2.263.251-1.079.447-2.17.66-3.258.227-1.156.46-2.312.666-3.472.175-.984.342-1.97.464-2.962.065-.533.044-1.078.027-1.617-.012-.347-.592-.513-.966-.248-.243.17-.432.426-.623.662-.854 1.06-1.765 2.082-2.528 3.206-.632.929-1.46 1.55-2.43 1.99-.405.184-.914.125-1.373.196-1.21.187-2.057-.396-2.765-1.296-.412-.524-.933-.988-1.235-1.569-.516-.994-1.428-1.795-1.362-3.101.029-.562-.325-1.162-.569-1.716-.657-1.498-.565-3.096-.68-4.67-.079-1.072-.274-2.143-.262-3.213.016-1.453-.059-2.9.285-4.364.28-1.19.132-2.485.163-3.734.026-1.062.023-2.124.06-3.185.03-.871.747-1.628 1.576-1.437.758.174 1.501.608 2.119 1.097.214.17.076.852.024 1.291-.226 1.908-.65 3.81-.684 5.72-.055 3.131 0 6.28.272 9.399.179 2.051.448 4.154 1.368 6.06.241.5.62.946.995 1.362.288.32 1.445.1 1.848-.372.744-.875 1.568-1.72 2.12-2.712.817-1.469 1.408-3.064 2.127-4.59.574-1.218 1.198-2.413 1.791-3.622.093-.188.137-.4.21-.597.298-.81.6-1.618.894-2.428.048-.13.105-.276.091-.407-.102-.991.478-1.787.725-2.677.193-.694.293-1.416.422-2.127.218-1.2.406-2.404.648-3.598.174-.861.817-1.262 1.849-1.232.897.027 1.82.653 1.848 1.416.036.979.315 1.953-.228 2.96-.302.562-.092 1.39-.176 2.09-.169 1.398-.409 2.787-.566 4.186-.102.909-.073 1.833-.17 2.743-.125 1.182-.342 2.354-.473 3.536-.14 1.263-.207 2.534-.341 3.798-.142 1.348-.284 2.699-.502 4.035-.215 1.321-.552 2.622-.784 3.94-.24 1.363-.345 2.753-.64 4.102-.36 1.65-.859 3.27-1.295 4.903-.265.992-.491 1.996-.796 2.975-.397 1.275-.854 2.532-1.287 3.796-.128.372-.253.747-.4 1.112-.621 1.532-1.26 3.058-1.873 4.593-.506 1.267-.934 2.569-1.49 3.813-.552 1.238-1.254 2.409-1.824 3.64-.372.806-.62 1.67-.936 2.503-.14.368-.29.734-.463 1.087-.757 1.544-1.55 3.07-2.278 4.628-.675 1.445-1.261 2.931-1.93 4.379-.218.47-.573.874-.866 1.307-.476.704-1.133 1.346-1.384 2.123-.335 1.038-1.304 1.543-1.721 2.486-.085.192-.709.284-1.022.197-.454-.127-.63-.476-.468-1.051.51-1.826 1.543-3.402 2.284-5.115.073-.167.11-.351.153-.53.043-.183.007-.466.116-.539 1.028-.687.92-2.03 1.665-2.867.55-.62.835-1.332.89-2.159a1.48 1.48 0 0 1 .234-.661c.7-1.107.918-2.392 1.366-3.592.34-.91.931-1.722 1.328-2.615.427-.96.743-1.968 1.133-2.945.284-.711.633-1.397.906-2.113.227-.597.33-1.245.584-1.828.5-1.149 1.107-2.252 1.593-3.407.31-.738.483-1.535.718-2.306l-.067-.018M354.821 196.016c-.025.039-.221.232-.28.462-.116.45-.088.945-.244 1.375-.149.41-.454.763-.695 1.138-.178.276-.364.548-.547.82-.33.49-.91.54-1.346.149-.208-.186-.46-.32-.697-.472-.912-.587-1.135-1.081-.954-2.153.173-1.02.384-2.036.513-3.061.042-.329-.165-.682-.185-1.027-.029-.51-.1-1.056.043-1.526.208-.688.34-1.322.301-2.071-.053-1 .152-2.033.366-3.025.227-1.055.062-2.058-.108-3.085-.055-.337.08-.704.123-1.058.066-.536.174-1.072.18-1.609.011-.958-.093-1.918-.057-2.873.086-2.257.226-4.511.345-6.766.133-2.538.297-5.075.388-7.614.057-1.574-.003-3.152.009-4.728.002-.22.121-.44.177-.662.137-.545.355-1.087.386-1.639.073-1.305-.285-2.62.232-3.924.174-.439-.014-1.012.021-1.52.101-1.467.226-2.932.356-4.397.023-.255.12-.504.18-.756.196-.816.768-1.156 1.549-.921 1.286.387 1.959 1.453 1.651 2.786-.199.86-.566 1.68-.813 2.532-.123.426-.173.879-.213 1.323-.12 1.36-.226 2.722-.325 4.083-.06.834-.052 1.676-.154 2.504-.217 1.75-.537 3.49-.714 5.244-.099.984.007 1.989.017 2.984.006.61.04 1.224 0 1.831-.08 1.215-.232 2.425-.293 3.64-.05.98-.003 1.963-.011 2.944a147.08 147.08 0 0 1-.053 3.252c-.053 1.712-.197 3.426-.145 5.134.016.532-.148 1.493.858 1.497 1.265-1.053 1.626-2.575 2.257-3.976.602-1.336 1.516-2.53 2.3-3.783.81-1.294 1.542-2.649 2.466-3.854.874-1.14 1.816-2.318 2.971-3.126 1.981-1.384 4.117-1.16 6.046.263.907.67 1.855 1.405 2.47 2.324.87 1.297 1.534 2.756 2.127 4.212.622 1.528 1.106 3.12 1.56 4.71.352 1.234.572 2.475.415 3.814-.233 1.99-.563 3.947-1.355 5.777-.583 1.346-1.142 2.727-2.143 3.857-.434.488-.711 1.117-1.147 1.603-1.102 1.228-1.805 2.842-3.424 3.584-.299.137-.47.54-.763.706-1.168.66-2.367 1.267-3.542 1.915-.341.187-.635.46-.967.668-.703.439-1.379.958-2.138 1.264-.87.352-1.721.588-2.282 1.479-.518.82-1.798.956-2.809.478-.574-.271-1.048-.482-1.116-1.326-.067-.841.417-1.172.898-1.471.869-.542 1.838-.917 2.736-1.415 1.05-.583 2.073-1.216 3.1-1.84.557-.339 1.107-.69 1.642-1.063.736-.514 1.435-1.083 2.186-1.573.685-.448 1.118-1.196 1.94-1.5.375-.137.68-.561.936-.914.58-.799 1.13-1.621 1.656-2.458.558-.888 1.116-1.783 1.59-2.718.248-.492.3-1.08.473-1.616.057-.178.257-.31.312-.49.288-.937.669-1.869.785-2.83.088-.728-.187-1.495-.274-2.248a51.422 51.422 0 0 1-.187-2.099c-.067-.894-.09-1.797-.665-2.557-.025-.034-.015-.093-.031-.137-.376-1.027-.62-2.132-1.162-3.061-.677-1.161-1.492-2.295-2.783-2.89-1.164-.535-1.922.299-2.722.908a25.966 25.966 0 0 0-1.928 1.603c-.173.16-.133.534-.287.735-.332.43-.77.781-1.088 1.22-.68.938-1.48 1.84-1.917 2.888-.58 1.394-1.731 2.478-1.926 4.1-.127 1.065-.7 2.077-1.089 3.106-.053.141-.2.248-.308.366-.108.117-.286.21-.324.346-.305 1.08-.544 2.182-.883 3.251-.368 1.162-.844 2.29-1.227 3.447-.138.415-.144.875-.24 1.51"/>
    </g>
  </g>
</svg>
