<svg width="543" height="176" xmlns="http://www.w3.org/2000/svg">
  <defs>
    <linearGradient x1="13.3%" y1="11.865%" y2="93.168%" id="a">
      <stop stop-color="#2B5993" offset="0%"/>
      <stop stop-color="#00AEF0" offset="100%"/>
    </linearGradient>
  </defs>
  <g fill="none" fill-rule="evenodd">
    <path d="M132 74c0 29.271-23.729 53-53 53s-53-23.729-53-53 23.729-53 53-53 53 23.729 53 53M177 124.939V32.06h14.596v92.878H177zm58.162 0l-18.178-67.27v67.27h-13.137V32.06h18.311l14.994 55.594V32.061h13.004v92.878h-14.994zm25.388-70.587c0-14.86 7.298-23.352 21.495-23.352 14.198 0 21.496 8.492 21.496 23.352v2.919h-13.8v-3.848c0-6.634-2.654-9.155-7.298-9.155s-7.298 2.521-7.298 9.155c0 19.106 28.529 22.689 28.529 49.225 0 14.86-7.431 23.352-21.761 23.352-14.33 0-21.761-8.492-21.761-23.352v-5.705h13.8v6.634c0 6.634 2.918 9.022 7.563 9.022 4.644 0 7.563-2.388 7.563-9.022 0-19.106-28.528-22.689-28.528-49.225zm53.252 70.587V32.06h14.596v92.878h-14.596zm48.874-38.478V73.193h20.434v29.455c0 14.86-7.43 23.352-21.761 23.352-14.33 0-21.761-8.492-21.761-23.352V54.352c0-14.86 7.43-23.352 21.761-23.352 14.33 0 21.761 8.492 21.761 23.352v9.022h-13.8v-9.95c0-6.635-2.919-9.156-7.563-9.156s-7.563 2.521-7.563 9.155v50.154c0 6.634 2.919 9.022 7.563 9.022s7.563-2.388 7.563-9.022V86.46h-6.634zm46.22-1.327v39.805H394.3V32.06h14.596v39.805h16.586V32.06h14.861v92.878h-14.861V85.134h-16.586zM448.48 45.33V32.06h45.115V45.33h-15.26v79.609h-14.595v-79.61h-15.26zm51.395 9.022c0-14.86 7.298-23.352 21.496-23.352 14.197 0 21.495 8.492 21.495 23.352v2.919h-13.8v-3.848c0-6.634-2.653-9.155-7.297-9.155s-7.298 2.521-7.298 9.155c0 19.106 28.528 22.689 28.528 49.225 0 14.86-7.43 23.352-21.761 23.352-14.33 0-21.76-8.492-21.76-23.352v-5.705h13.799v6.634c0 6.634 2.919 9.022 7.563 9.022s7.563-2.388 7.563-9.022c0-19.106-28.528-22.689-28.528-49.225z" fill="#FFF"/>
    <path d="M142.68 109.526V63.568C142.68 28.459 113.707 0 77.966 0c-35.744 0-64.72 28.46-64.72 63.568v46.623c-.278 6.008-1.73 19.79-8.834 35.915-9.553 21.667-1.649 19.086 5.432 17.302 7.08-1.775 22.89-8.733 27.83-.16 4.936 8.567 9.055 16.01 20.581 11.157 11.527-4.849 16.959-6.466 18.605-6.466h2.237c1.645 0 7.079 1.617 18.604 6.466 11.527 4.853 15.645-2.59 20.584-11.158 4.937-8.572 20.746-1.614 27.828.161 7.08 1.784 14.98 4.365 5.431-17.302-7.391-16.778-8.663-30.994-8.862-36.58z" fill="url(#a)"/>
    <path d="M50.094 97.67c4.472 0 8.122-3.66 8.122-8.144 0-2.104-.821-3.934-2.008-5.399l10.22-16.38a9.17 9.17 0 0 0 2.282.275c1.46 0 2.83-.366 4.015-1.098l7.94 7.687c-.64 1.098-.913 2.47-.913 3.843 0 4.484 3.65 8.144 8.122 8.144 4.471 0 8.121-3.66 8.121-8.144 0-2.105-.73-3.935-2.007-5.399l9.673-15.739c.73.183 1.46.275 2.19.275 4.471 0 8.122-3.66 8.122-8.144s-3.65-8.144-8.122-8.144c-4.472 0-8.122 3.66-8.122 8.144 0 2.104.73 3.934 2.008 5.399L89.88 70.493a8.977 8.977 0 0 0-2.19-.274c-1.46 0-2.829.366-4.015 1.098l-7.94-7.687c.64-1.098.913-2.379.913-3.752 0-4.483-3.65-8.144-8.121-8.144-4.472 0-8.122 3.66-8.122 8.144 0 2.105.73 3.935 2.008 5.4L52.102 81.656a8.977 8.977 0 0 0-2.19-.275c-4.472 0-8.122 3.66-8.122 8.144.091 4.484 3.741 8.144 8.304 8.144z" fill="#FFF" fill-rule="nonzero" stroke="#FFF" stroke-width="7.238"/>
  </g>
</svg>
