<svg xmlns="http://www.w3.org/2000/svg" width="123" height="30">
  <defs>
    <linearGradient id="a" x1="21.037%" x2="89.459%" y1="11.865%" y2="93.168%">
      <stop offset="0%" stop-color="#2B5993"/>
      <stop offset="100%" stop-color="#00AEF0"/>
    </linearGradient>
  </defs>
  <g fill="none" fill-rule="evenodd">
    <path fill="#FFF" d="M22.55 12.614c0 4.989-4.054 9.034-9.054 9.034s-9.054-4.045-9.054-9.034c0-4.99 4.053-9.034 9.054-9.034 5 0 9.054 4.044 9.054 9.034m7.688 8.682V5.465h2.493v15.831h-2.494zm9.935 0L37.068 9.83v11.466h-2.244V5.465h3.128l2.562 9.476V5.465h2.22v15.831h-2.56zm4.338-12.031c0-2.533 1.246-3.98 3.672-3.98 2.425 0 3.672 1.447 3.672 3.98v.497h-2.358v-.656c0-1.13-.453-1.56-1.246-1.56-.794 0-1.247.43-1.247 1.56 0 3.257 4.874 3.868 4.874 8.39 0 2.534-1.27 3.981-3.718 3.981s-3.717-1.447-3.717-3.98v-.973H46.8v1.131c0 1.13.499 1.538 1.292 1.538s1.292-.407 1.292-1.538c0-3.257-4.873-3.867-4.873-8.39zm9.097 12.031V5.465H56.1v15.831h-2.493zm8.35-6.558v-2.262h3.49v5.02c0 2.534-1.27 3.981-3.718 3.981s-3.717-1.447-3.717-3.98V9.265c0-2.533 1.27-3.98 3.717-3.98 2.449 0 3.718 1.447 3.718 3.98v1.537h-2.357V9.106c0-1.13-.5-1.56-1.293-1.56-.793 0-1.292.43-1.292 1.56v8.55c0 1.13.5 1.537 1.292 1.537.794 0 1.293-.407 1.293-1.538v-2.917h-1.134zm7.895-.227v6.785H67.36V5.465h2.493v6.785h2.833V5.465h2.54v15.831h-2.54v-6.785h-2.833zm6.763-6.784V5.465h7.707v2.262h-2.607v13.57h-2.494V7.726h-2.606zm8.78 1.538c0-2.533 1.246-3.98 3.672-3.98 2.425 0 3.672 1.447 3.672 3.98v.497h-2.358v-.656c0-1.13-.453-1.56-1.246-1.56-.794 0-1.247.43-1.247 1.56 0 3.257 4.874 3.868 4.874 8.39 0 2.534-1.27 3.981-3.718 3.981s-3.717-1.447-3.717-3.98v-.973h2.357v1.131c0 1.13.499 1.538 1.292 1.538s1.292-.407 1.292-1.538c0-3.257-4.873-3.867-4.873-8.39z"/>
    <path fill="url(#a)" d="M24.375 18.67v-7.835C24.375 4.851 19.425 0 13.319 0 7.213 0 2.263 4.851 2.263 10.835v7.947c-.048 1.025-.296 3.374-1.51 6.122-1.631 3.694-.281 3.254.929 2.95 1.209-.303 3.91-1.489 4.754-.028.843 1.46 1.547 2.73 3.516 1.902 1.969-.826 2.897-1.102 3.178-1.102h.382c.281 0 1.21.276 3.178 1.102 1.97.827 2.673-.441 3.517-1.902.843-1.461 3.544-.275 4.754.028 1.21.304 2.559.744.928-2.95-1.263-2.86-1.48-5.283-1.514-6.235z"/>
    <path fill="#FFF" fill-rule="nonzero" stroke="#FFF" stroke-width="1.234" d="M8.558 16.648a1.39 1.39 0 0 0 1.387-1.388c0-.359-.14-.67-.343-.92l1.746-2.792c.125.031.25.047.39.047.25 0 .483-.063.686-.187l1.356 1.31c-.109.187-.156.42-.156.655a1.39 1.39 0 0 0 1.388 1.388 1.39 1.39 0 0 0 1.387-1.388c0-.359-.125-.67-.343-.92L17.71 9.77c.124.031.25.047.374.047a1.39 1.39 0 0 0 1.387-1.389 1.39 1.39 0 0 0-1.387-1.388 1.39 1.39 0 0 0-1.388 1.388c0 .36.125.671.343.92l-1.683 2.668a1.537 1.537 0 0 0-.374-.047c-.25 0-.484.062-.686.187l-1.357-1.31c.11-.187.156-.405.156-.64a1.39 1.39 0 0 0-1.387-1.388 1.39 1.39 0 0 0-1.388 1.389c0 .358.125.67.343.92l-1.761 2.792a1.537 1.537 0 0 0-.374-.047A1.39 1.39 0 0 0 7.14 15.26c.016.764.64 1.388 1.419 1.388z"/>
    <g transform="translate(94.813 5.284)">
      <path fill="#00AEF0" fill-rule="nonzero" d="M4.902 4.383v2.748h.648c.311 0 .555-.08.73-.238.176-.158.264-.445.264-.861v-.58c0-.376-.068-.648-.203-.816-.136-.169-.35-.253-.64-.253h-.799zm0 4.233v3.194h.95c.28 0 .494-.074.64-.223.145-.148.218-.416.218-.802V9.88c0-.485-.083-.817-.249-.995-.166-.178-.44-.268-.82-.268h-.739zm.844-5.718c.863 0 1.488.198 1.875.594.386.396.58.995.58 1.797v.372c0 .534-.086.975-.257 1.322-.17.346-.441.604-.813.772.452.168.77.443.957.824.185.382.278.85.278 1.404v.847c0 .802-.21 1.413-.632 1.834-.422.421-1.05.631-1.883.631H3.246V2.898h2.5zm5.27 4.382h2.275v1.485h-2.274v3.045h2.861v1.485H9.36V2.898h4.518v1.485h-2.861V7.28zm3.434-4.382h5.12v1.485h-1.73v8.912h-1.657V4.383H14.45V2.898zm6.883 7.1h1.596L22.13 4.74l-.798 5.258zm3.78 3.297H23.44l-.286-1.886h-2.033l-.286 1.886h-1.521L21 2.898h2.425l1.687 10.397z"/>
      <rect width="26.824" height="14.83" x=".682" y=".682" stroke="#00AEF0" stroke-width="1.364" rx="1.091"/>
    </g>
  </g>
</svg>
