<svg xmlns="http://www.w3.org/2000/svg" width="41" height="41" viewBox="0 0 41 41">
    <g fill="#FFF" fill-rule="nonzero">
        <path d="M39.088.28H1.232a.981.981 0 0 0-.952.952v37.856c0 .504.448.952.952.952h37.856a.981.981 0 0 0 .952-.952V1.232a.981.981 0 0 0-.952-.952zM14 2.52c.672 0 1.176.504 1.176 1.176 0 .672-.504 1.176-1.176 1.176a1.148 1.148 0 0 1-1.176-1.176c0-.672.504-1.176 1.176-1.176zm-4.984 0c.672 0 1.176.504 1.176 1.176 0 .672-.504 1.176-1.176 1.176A1.183 1.183 0 0 1 7.84 3.696c0-.672.56-1.176 1.176-1.176zm-4.928 0c.672 0 1.176.504 1.176 1.176 0 .672-.504 1.176-1.176 1.176a1.148 1.148 0 0 1-1.176-1.176c0-.672.504-1.176 1.176-1.176zM37.24 36.288a.981.981 0 0 1-.952.952H4.032a.981.981 0 0 1-.952-.952V9.24c0-.504.448-.952.952-.952h32.256c.504 0 .952.448.952.952v27.048z"/>
        <path d="M30.24 11.368c-.56 0-1.064.448-1.12 1.064l-.28 2.128c0 .112-.168.168-.28.112-4.088-4.032-10.696-4.48-15.232-.728-4.592 3.752-5.488 10.584-2.016 15.4 3.808 5.264 11.144 6.272 16.24 2.352.448-.336.616-.952.336-1.456a1.104 1.104 0 0 0-1.68-.336C22.12 33.096 16.128 32.256 13.104 28c-2.632-3.696-2.072-8.96 1.288-11.984 3.584-3.304 9.016-3.136 12.432.056.112.112 0 .28-.112.28l-2.24-.28c-.56-.056-1.12.224-1.288.784-.224.672.28 1.344.952 1.456l5.32.616c.28.056.616-.056.84-.224.224-.168.392-.448.448-.728l.616-5.32c.056-.672-.448-1.288-1.12-1.288z"/>
    </g>
</svg>
