<svg width="10" height="13" xmlns="http://www.w3.org/2000/svg">
  <path d="M6.19697 2.254638H1.409091C.636364 2.254638 0 2.853972 0 3.581735v7.948311c0 .727763.636364 1.327097 1.409091 1.327097H6.19697c.772727 0 1.409091-.599334 1.409091-1.327097V3.581735c0-.742033-.636364-1.327097-1.409091-1.327097zm.848485 9.261138c0 .442366-.378788.799112-.848485.799112H1.409091c-.469697 0-.848485-.356746-.848485-.799112V3.581735c0-.442366.378788-.799113.848485-.799113H6.19697c.469697 0 .848485.356747.848485.799113v7.934041zM10 1.327097v7.948311c0 .727763-.636364 1.327097-1.409091 1.327097-.151515 0-.287879-.114159-.287879-.271127 0-.156969.121212-.271127.287879-.271127.469697 0 .848485-.356747.848485-.799113V1.327097c0-.442366-.378788-.799112-.848485-.799112H3.80303c-.469697 0-.848485.356746-.848485.799112 0 .142698-.121212.271127-.287878.271127-.166667 0-.287879-.114159-.287879-.271127C2.393939.599334 3.030303 0 3.80303 0h4.787879C9.363636 0 10 .599334 10 1.327097z" fill="#00AEF0" fill-rule="nonzero"/>
</svg>
