<svg xmlns="http://www.w3.org/2000/svg" width="45" height="36"> 
    <g fill="#FFF" fill-rule="evenodd">
        <path d="M15.428 19.82c-5.097.098-10.104 1.608-14.435 4.217l-.954.574v10.994h31.25V24.653l-.896-.582c-4.682-3.039-9.869-4.35-14.965-4.251zm.026 3.94c4.065-.086 8.151 1.008 11.929 3.23v4.668H3.945v-4.65c3.546-1.946 7.48-3.164 11.51-3.249z"/>
        <path fill-rule="nonzero" d="M15.664.079c-4.292 0-7.812 3.558-7.812 7.895 0 4.336 3.52 7.894 7.812 7.894s7.813-3.558 7.813-7.894c0-4.337-3.521-7.895-7.813-7.895zm0 3.947c2.18 0 3.906 1.744 3.906 3.948 0 2.203-1.725 3.947-3.906 3.947-2.18 0-3.906-1.744-3.906-3.947 0-2.204 1.726-3.948 3.906-3.948z"/>
        <path d="M42.352 6l-9.388 8.512-2.972-2.695-2.61 2.937 5.582 5.062L44.96 8.937 42.35 6z"/>
    </g>
</svg>
