<svg xmlns="http://www.w3.org/2000/svg" width="28" height="31">
  <g fill="none" fill-rule="evenodd" stroke="#FFF">
    <path stroke-width="2.86" d="M25.143 24.615c-1.129-2.597-1.323-4.797-1.353-5.662v-7.114C23.79 6.405 19.365 2 13.906 2c-5.458 0-9.883 4.405-9.883 9.84v7.216c-.043.93-.264 3.063-1.35 5.559-1.458 3.354-.251 2.954.83 2.678 1.081-.275 3.496-1.352 4.25-.025.754 1.326 1.383 2.478 3.143 1.727 1.76-.75 2.59-1 2.841-1h.342c.251 0 1.081.25 2.841 1 1.76.751 2.39-.4 3.144-1.727s3.168-.25 4.25.025c1.08.276 2.287.676.829-2.678"/>
    <path fill="#FFF" fill-rule="nonzero" stroke-width=".935" d="M17.876 8.295c-.683 0-1.24.567-1.24 1.26 0 .326.125.61.306.836l-1.56 2.536a1.383 1.383 0 0 0-.35-.043c-.222 0-.431.057-.612.17l-1.213-1.19c.098-.17.14-.382.14-.595 0-.694-.558-1.26-1.24-1.26-.684 0-1.241.566-1.241 1.26 0 .326.111.61.306.836l-1.477 2.436A1.253 1.253 0 0 0 8.12 15.76c0 .694.558 1.261 1.24 1.261.684 0 1.241-.567 1.241-1.26 0-.326-.111-.61-.306-.836l1.505-2.422c.111.028.223.042.334.042.223 0 .432-.056.613-.17l1.213 1.19c-.098.17-.14.368-.14.58 0 .695.558 1.261 1.24 1.261.684 0 1.24-.566 1.24-1.26 0-.326-.11-.61-.306-.836l1.575-2.535a1.253 1.253 0 0 0 1.575-1.218 1.277 1.277 0 0 0-1.268-1.26z"/>
  </g>
</svg>
