<svg xmlns="http://www.w3.org/2000/svg" width="75" height="38">
  <g fill="none" fill-rule="evenodd">
    <path fill="#FFF" fill-rule="nonzero" d="M21.862 20.89H2.874C1.78 20.89.895 20.051.895 19c0-1.044.887-1.89 1.979-1.89h18.994l-2.238-2.135c-.767-.731-.766-1.918.013-2.66.774-.739 2.033-.735 2.79-.013l5.63 5.37c.38.364.573.84.573 1.319l-.006.014c-.001.48-.191.957-.567 1.316l-5.63 5.371c-.767.731-2.01.731-2.79-.012a1.83 1.83 0 0 1-.013-2.661l2.232-2.129zm15.69-17.01v30.24H23.674c-1.09 0-1.972.84-1.972 1.89 0 1.045.89 1.89 1.972 1.89h15.87a2.01 2.01 0 0 0 1.394-.55 1.85 1.85 0 0 0 .579-1.337V1.986c0-.52-.219-.99-.575-1.332a2.03 2.03 0 0 0-1.398-.556h-15.87c-1.09 0-1.972.84-1.972 1.89 0 1.044.89 1.89 1.972 1.89h13.88z"/>
    <g stroke="#FFF">
      <path stroke-width="2.86" d="M72.375 27.856c-1.129-2.597-1.323-4.797-1.353-5.662v-7.113c0-5.435-4.425-9.84-9.883-9.84-5.46 0-9.884 4.405-9.884 9.84v7.216c-.043.93-.264 3.063-1.35 5.56-1.458 3.353-.251 2.953.83 2.677 1.082-.274 3.496-1.351 4.25-.024.754 1.326 1.383 2.478 3.143 1.727 1.76-.75 2.59-1.001 2.842-1.001h.341c.252 0 1.081.25 2.841 1 1.76.752 2.39-.4 3.144-1.726.754-1.327 3.168-.25 4.25.024 1.08.276 2.287.676.83-2.678"/>
      <path fill="#FFF" fill-rule="nonzero" stroke-width=".935" d="M65.108 11.537c-.683 0-1.24.566-1.24 1.26 0 .326.125.61.306.836l-1.56 2.535a1.383 1.383 0 0 0-.35-.042c-.222 0-.431.056-.612.17l-1.213-1.19c.098-.17.14-.383.14-.595 0-.694-.558-1.26-1.24-1.26-.684 0-1.241.566-1.241 1.26 0 .326.112.609.307.836l-1.478 2.436A1.253 1.253 0 0 0 55.352 19c0 .694.558 1.26 1.241 1.26s1.24-.566 1.24-1.26c0-.326-.111-.61-.306-.836l1.505-2.422c.111.028.223.043.334.043.223 0 .432-.057.613-.17l1.213 1.19c-.098.17-.14.368-.14.58 0 .694.558 1.26 1.24 1.26.684 0 1.241-.566 1.241-1.26 0-.326-.111-.609-.307-.836l1.575-2.535a1.253 1.253 0 0 0 1.575-1.218 1.277 1.277 0 0 0-1.268-1.26z"/>
    </g>
  </g>
</svg>
