<svg width="14" height="13" xmlns="http://www.w3.org/2000/svg">
  <path d="M12.9194545 4.56625l-3.7182727-.3614L7.5479091.5668C7.4473636.34645 7.238.2093 7 .2093c-.238 0-.448.13715-.547909.3575L4.7988181 4.2042l-3.7176364.36205c-.2341818.0221-.4301818.1768-.511.40235-.0808182.2262-.028.4732.1374546.6448l2.7306363 2.8301-.6567273 3.6062c-.042.2301.0451819.4615.2271819.6032.1826363.14235.4238182.1677.63.065L7 11.0526l3.3606364 1.67505c.0846363.04225.1756363.06305.266.06305.1291818 0 .2570909-.0429.3646363-.12675.1826364-.1417.2704546-.3731.2284546-.60385l-.6573637-3.61985 2.73-2.8275c.1654546-.1716.2182728-.41795.1374546-.64415-.0808182-.22555-.2761818-.38025-.5103637-.40235z" fill="#FFF" fill-rule="nonzero"/>
</svg>
