<svg xmlns="http://www.w3.org/2000/svg" width="14" height="13">
  <path d="M12.92 4.566L9.2 4.205 7.548.567a.598.598 0 0 0-1.096 0L4.8 4.204l-3.718.362a.622.622 0 0 0-.374 1.047l2.731 2.83-.656 3.607a.62.62 0 0 0 .227.603.59.59 0 0 0 .63.065L7 11.053l3.36 1.675a.595.595 0 0 0 .631-.064.62.62 0 0 0 .229-.604l-.658-3.62 2.73-2.827a.62.62 0 0 0 .138-.644.6.6 0 0 0-.51-.403zm-2.9 3.556a.313.313 0 0 0-.082.273l.686 3.778-3.493-1.741a.298.298 0 0 0-.264 0l-3.493 1.73.686-3.764a.312.312 0 0 0-.082-.273l-2.84-2.944 3.89-.379c.107-.01.2-.078.246-.177L7 .825l.002.001 1.725 3.799c.046.1.14.167.246.177l3.89.379-2.84 2.941z"/>
</svg>
