<svg xmlns="http://www.w3.org/2000/svg" width="20" height="20">
  <g fill="none" fill-rule="evenodd" transform="translate(1 1)">
    <circle cx="9" cy="9" r="9" stroke="#4A4A4A" stroke-width="1.5"/>
    <path fill="#4A4A4A" fill-rule="nonzero" d="M8.064 11.034c0-.638.078-1.146.233-1.524.155-.378.439-.751.85-1.118.413-.367.688-.665.825-.895.136-.23.205-.473.205-.728 0-.77-.356-1.156-1.067-1.156-.337 0-.607.104-.81.311-.203.208-.308.494-.318.858H6c.01-.87.29-1.552.844-2.044S8.154 4 9.11 4c.967 0 1.716.234 2.25.7.533.468.8 1.127.8 1.98 0 .387-.087.753-.26 1.097-.174.344-.477.726-.91 1.145l-.553.526a1.875 1.875 0 0 0-.595 1.17l-.028.416h-1.75zm-.198 2.099a1 1 0 0 1 .311-.756c.208-.198.473-.297.797-.297.323 0 .589.1.796.297a1 1 0 0 1 .311.756c0 .3-.101.549-.304.745-.203.196-.47.294-.803.294-.333 0-.6-.098-.804-.294a.992.992 0 0 1-.304-.745z"/>
  </g>
</svg>
