<svg xmlns="http://www.w3.org/2000/svg" width="19" height="19" viewBox="0 0 19 19">
    <g>
        <path d="M11.97 6.566l.971-1.288c.253.105.549.169.845.126.95-.105 1.646-.97 1.54-1.92-.105-.95-.97-1.647-1.92-1.542-.95.106-1.647.971-1.542 1.921.043.338.17.634.36.887l-.972 1.288c.254.148.486.338.718.528zM16.952 11.316c-.464.063-.886.295-1.16.633l-2.766-1.246c-.085.275-.212.55-.36.803l2.787 1.266c-.02.148-.042.317-.02.486.105.95.97 1.646 1.92 1.54.95-.105 1.647-.97 1.541-1.92-.126-.992-.992-1.668-1.942-1.562zM11.062 17.079c-.084-.739-.633-1.33-1.309-1.499l-.042-2.174H9.67c-.275.02-.549.02-.823 0l.02 2.195c-.802.232-1.372 1.013-1.266 1.879.106.95.971 1.647 1.921 1.541.95-.127 1.647-.971 1.541-1.942zM3.293 11.062c-.359-.528-.97-.844-1.625-.76-.95.106-1.647.971-1.541 1.921.105.95.97 1.647 1.92 1.541.93-.105 1.626-.928 1.542-1.878l2.048-.718c-.127-.254-.233-.528-.296-.824l-2.048.718zM5.974 3.462L7.178 6.06c.253-.148.506-.275.802-.38L6.756 3.103c.443-.359.696-.929.633-1.54C7.283.612 6.418-.085 5.468.02c-.95.106-1.647.971-1.541 1.921.105.95.97 1.647 1.92 1.541.043 0 .085 0 .127-.02z"/>
        <circle cx="9.226" cy="9.458" r="2.998"/>
    </g>
</svg>
