<svg xmlns="http://www.w3.org/2000/svg" width="24" height="24">
  <g fill="#FFF" transform="translate(-1)">
    <path d="M13 24a11.936 11.936 0 0 1-8.578-3.59 11.826 11.826 0 0 1-3.421-8.549c.004-.236.092-.464.248-.642.134-.153.319-.272.516-.322A3.195 3.195 0 0 0 3.82 9.259a1 1 0 0 1 1.244-.477c2.208.838 4.312-.847 4.312-2.97l-.019-.178-.022-.167a1 1 0 0 1 .96-1.106 3.187 3.187 0 0 0 2.991-2.439C13.539.853 14.639.194 15.74.447 21.192 1.715 25 6.491 25 12.062 25 18.645 19.617 24 13 24zM3.013 12.582a9.829 9.829 0 0 0 2.835 6.426A9.954 9.954 0 0 0 13 22c5.514 0 10-4.458 10-9.938 0-4.636-3.172-8.611-7.713-9.667l-.067.013c-.446 1.91-1.972 3.382-3.861 3.82A5.194 5.194 0 0 1 6.188 11c-.343 0-.688-.037-1.033-.11a5.217 5.217 0 0 1-2.142 1.692z"/>
    <circle cx="15.5" cy="8.5" r="1.5"/>
    <circle cx="8.5" cy="14.5" r="1.5"/>
    <circle cx="16.5" cy="16.5" r="1.5"/>
    <circle cx="13" cy="12" r="1"/>
    <circle cx="11" cy="18" r="1"/>
    <circle cx="10" cy="1" r="1"/>
    <circle cx="5.5" cy="5.5" r="1.5"/>
    <circle cx="19" cy="12" r="1"/>
  </g>
</svg>
