<svg xmlns="http://www.w3.org/2000/svg" width="20" height="23" viewBox="0 0 20 23">
    <path fill="#FFF" fill-rule="nonzero" d="M11.299.877A12.449 12.449 0 0 0 9.66.803a12.435 12.435 0 0 0-4.302.84c-.457.178-.879.374-1.257.58a5.695 5.695 0 0 0-.45.269c-.341.217-.433.715-.195 1.063.239.365.717.444 1.091.185.076-.056.203-.137.36-.227.31-.179.66-.348 1.04-.501 2.945-1.188 6.227-.988 9.65.777a.771.771 0 0 0 1.042-.287c.23-.358.08-.828-.338-1.058-1.651-.86-3.326-1.38-5.002-1.567zM2.918 6.038a11.796 11.796 0 0 0-1.72 1.716 7.6 7.6 0 0 0-.573.787.756.756 0 0 0 .213 1.046c.356.23.831.118 1.118-.26a6.39 6.39 0 0 1 .48-.674 9.747 9.747 0 0 1 1.45-1.46C5.632 5.765 7.7 5.03 10.053 5.07c2.327.03 4.359.758 6.06 2.108a9.52 9.52 0 0 1 1.473 1.45c.213.26.381.497.472.65a.793.793 0 0 0 1.057.272c.378-.21.493-.666.276-1.058a7.283 7.283 0 0 0-.577-.783 11.586 11.586 0 0 0-1.74-1.698c-1.995-1.58-4.343-2.433-6.996-2.468-2.705-.036-5.109.83-7.16 2.495zm1.546 1.96c-3.039 2.485-3.978 6.547-2.402 11.08.134.398.574.61.982.475a.754.754 0 0 0 .47-.97C2.118 14.575 2.838 11.32 5.45 9.15c2.196-1.774 5.859-1.973 8.419-.41 1.247.776 2.325 2.153 2.887 3.662.498 1.314.529 2.704.086 3.366-.4.613-1.235.892-2.033.692-.887-.222-1.369-.849-1.396-1.863-.03-1.68-1.304-2.983-3.027-3.18-1.668-.196-3.212.779-3.61 2.35-.938 3.562 1.717 7.681 5.99 9a.785.785 0 0 0 .97-.498.761.761 0 0 0-.519-.969c-3.431-1.054-5.66-4.441-4.95-7.176.216-.852.95-1.282 1.972-1.19 1.018.115 1.623.725 1.623 1.686.05 1.635 1.086 2.947 2.567 3.319 1.439.36 2.932-.167 3.705-1.337.775-1.149.79-2.82.074-4.727-.708-1.866-1.966-3.458-3.528-4.431a9.044 9.044 0 0 0-5.375-1.297c-1.826.129-3.551.787-4.84 1.85zm5.217.71c-2.107.074-3.927 1.207-4.946 3.123-1.188 2.213-1.093 4.709.168 7.3.186.381.396.758.628 1.13.341.548.717 1.066 1.115 1.543.203.244.386.446.51.57.291.3.771.305 1.08.011.307-.29.313-.745.019-1.073a8.293 8.293 0 0 1-.445-.505c-.347-.422-.676-.879-.973-1.36-.2-.323-.382-.65-.543-.978-1.064-2.169-1.158-4.135-.204-5.917 1.052-1.95 2.99-2.746 5.062-2.153 2.065.597 3.393 2.326 3.365 4.478a.728.728 0 0 0 .697.807c.428.038.787-.294.822-.768.06-2.818-1.752-5.203-4.453-5.983A5.977 5.977 0 0 0 9.68 8.71zm-.508 6.022c.005.223.044.556.115.926a7.137 7.137 0 0 0 .792 2.179c1.16 1.953 3.34 2.94 6.18 2.678a.76.76 0 0 0 .721-.805c-.025-.436-.403-.746-.867-.71-2.368.215-3.797-.403-4.703-1.933a4.387 4.387 0 0 1-.133-.239 5.224 5.224 0 0 1-.487-1.455 4.374 4.374 0 0 1-.077-.658.772.772 0 0 0-.79-.766.767.767 0 0 0-.75.783z"/>
</svg>
