<svg xmlns="http://www.w3.org/2000/svg" width="32" height="33"><g fill="#FFF"><path d="M13.97 27.114h-.648c-.22 0-.4.18-.4.402 0 .222.18.402.4.402h.648c.221 0 .4-.18.4-.402a.401.401 0 0 0-.4-.402z"/><path d="M31.217 0H6.747c-.222 0-.4.18-.4.402v6.35H3.564c-.22 0-.4.18-.4.403v4.304H2.71A2.338 2.338 0 0 0 .383 13.8v13.787a2.338 2.338 0 0 0 2.328 2.343h7.296v2.264H8.931c-.221 0-.4.18-.4.403 0 .222.179.402.4.402h8.783c.22 0 .4-.18.4-.402a.401.401 0 0 0-.4-.403h-1.076V29.93h7.294a2.338 2.338 0 0 0 2.328-2.343v-4.954h1.9c1.906 0 3.457-1.56 3.457-3.478V.402a.401.401 0 0 0-.4-.402zM3.965 11.861V7.558h2.381v14.674c0 .222.18.402.4.402h16.99v2.469H3.965V11.86zm-2.782 1.94c0-.847.686-1.537 1.528-1.537h.454v12.839H1.183V13.8zm14.655 18.394h-5.03v-2.264h5.03v2.264zm9.622-4.607c0 .848-.686 1.538-1.528 1.538H2.71c-.842 0-1.528-.69-1.528-1.538v-1.68H25.46v1.68zm0-2.485h-.925v-2.469h.925v2.469zm5.357-5.947a2.668 2.668 0 0 1-2.657 2.673H7.146V5.274h23.671v13.882zm0-14.687H7.147V.805h23.67v3.664z"/><path d="M8.93 3.04h.2c.222 0 .4-.18.4-.403a.401.401 0 0 0-.4-.402h-.2c-.22 0-.4.18-.4.402 0 .223.18.403.4.403zm1.477 0h.426c.22 0 .4-.18.4-.403a.401.401 0 0 0-.4-.402h-.426c-.22 0-.4.18-.4.402 0 .223.18.403.4.403zm1.703 0h.2c.22 0 .4-.18.4-.403a.401.401 0 0 0-.4-.402h-.2c-.222 0-.4.18-.4.402 0 .223.178.403.4.403zm2.803 13.726a5.13 5.13 0 0 0 3.799 1.978 2.122 2.122 0 0 0 .5.002h.013l.012-.002h.005a5.142 5.142 0 0 0 3.807-1.976 5.15 5.15 0 0 0 1.109-3.218c0-1.18-.383-2.29-1.105-3.214a5.135 5.135 0 0 0-3.807-1.977 2.281 2.281 0 0 0-.399-.012h-.014a.402.402 0 0 0-.054.006h-.008l-.009.001-.012.001h-.008l-.007.002h-.007c-.106.006-.21.013-.33.028-.032.003-.062.009-.093.013-.082.01-.163.02-.265.038l-.043.008c-.102.022-.204.044-.311.07-.084.022-.16.047-.237.072a5.212 5.212 0 0 0-.389.135 11.433 11.433 0 0 0-.39.171l-.235.128a2.046 2.046 0 0 0-.256.158l-.073.046c-.07.048-.139.099-.21.151a3.746 3.746 0 0 0-.224.177 3.04 3.04 0 0 0-.25.225l-.012.012-.062.06a2.72 2.72 0 0 0-.177.184 4.786 4.786 0 0 0-.257.302 5.149 5.149 0 0 0-1.109 3.215c0 1.183.384 2.296 1.108 3.216zm6.925.111c-.035.031-.07.064-.107.093a4.314 4.314 0 0 1-.255.189c.091-.144.177-.297.258-.458.082.015.171.028.248.043-.047.045-.094.09-.144.133zm.738-.822a8.582 8.582 0 0 0-.528-.117c.21-.618.333-1.29.368-1.985h.923a4.33 4.33 0 0 1-.763 2.102zm-.003-5.014c.436.628.698 1.345.766 2.107h-.923a7.311 7.311 0 0 0-.37-1.988 8.49 8.49 0 0 0 .527-.119zm-.841-.91c.038.031.073.065.11.097.048.041.094.085.14.129-.08.016-.167.028-.25.043a5.218 5.218 0 0 0-.258-.459c.088.061.175.123.258.19zm-2.35-.926c.568.149 1.101.616 1.506 1.313-.477.05-.988.079-1.507.09V9.204zm0 2.21c.65-.013 1.28-.057 1.858-.13.212.571.34 1.202.377 1.863H19.38v-1.733zm0 2.538h2.235a6.457 6.457 0 0 1-.375 1.862 18.1 18.1 0 0 0-1.86-.127v-1.735zm0 2.54c.518.01 1.03.038 1.509.088-.405.696-.937 1.164-1.51 1.316v-1.404zm-3.156.473c-.032-.026-.062-.055-.093-.082-.052-.045-.102-.092-.152-.14.077-.015.166-.028.248-.043.08.161.166.313.257.457a4.345 4.345 0 0 1-.26-.192zm2.355.931c-.57-.149-1.104-.617-1.509-1.315.478-.05.99-.08 1.51-.09v1.405zm0-2.209c-.647.012-1.28.055-1.861.127a6.404 6.404 0 0 1-.376-1.862h2.237v1.735zm0-6.482v1.401c-.518-.01-1.03-.038-1.509-.089.403-.692.935-1.16 1.51-1.312zm-1.861 2.08c.58.072 1.21.116 1.861.129v1.733h-2.237a6.408 6.408 0 0 1 .376-1.863zm-.72-.954c.118-.11.24-.214.368-.309l.118-.085a5.195 5.195 0 0 0-.259.46c-.083-.014-.17-.026-.25-.043a.448.448 0 0 0 .023-.023zm-.613 5.722a4.328 4.328 0 0 1-.764-2.102h.92c.035.697.16 1.369.37 1.986a8.556 8.556 0 0 0-.526.116zm0-5.008c.166.043.343.08.525.116a7.315 7.315 0 0 0-.37 1.985h-.919c.068-.76.329-1.475.765-2.1zm5.559-3.645c.123.04.243.083.363.13a.4.4 0 0 0 .518-.23.403.403 0 0 0-.229-.52 6.92 6.92 0 0 0-.407-.146.403.403 0 0 0-.245.766zm4.039 3.858a.4.4 0 1 0 .748-.285 7.2 7.2 0 0 0-.166-.402.398.398 0 0 0-.529-.2.403.403 0 0 0-.2.531c.052.117.101.235.147.356zm-6.737-4.127a6.129 6.129 0 0 1 .425-.032.402.402 0 0 0 .382-.42.398.398 0 0 0-.418-.384 7.075 7.075 0 0 0-.43.033.402.402 0 0 0 .041.803zm5.031 11.218c-.095.086-.193.17-.293.25a.404.404 0 0 0 .25.717c.088 0 .177-.03.25-.09a7.45 7.45 0 0 0 .328-.28.404.404 0 0 0 .03-.568.398.398 0 0 0-.565-.03zm.26-9.346a.399.399 0 0 0 .565.003.404.404 0 0 0 .004-.57 6.966 6.966 0 0 0-.314-.299.398.398 0 0 0-.565.032.404.404 0 0 0 .032.568c.095.085.188.174.278.266zm-2.569 10.69a6.47 6.47 0 0 1-.368.108.403.403 0 0 0 .201.78c.14-.037.278-.078.414-.122a.403.403 0 0 0-.246-.766zm-2.653.282a6.07 6.07 0 0 1-.381-.051.403.403 0 1 0-.13.795 7.608 7.608 0 0 0 .47.059.402.402 0 0 0 .04-.803zm7.083-6.425c0 .13-.003.259-.01.387a.401.401 0 0 0 .4.426c.21 0 .386-.165.398-.38.008-.143.013-.287.013-.433v-.027a.39.39 0 0 0-.4-.389c-.221 0-.4.194-.4.416zm-.548 3.518a.398.398 0 0 0 .539-.172c.066-.129.13-.26.188-.392a.403.403 0 0 0-.203-.531.398.398 0 0 0-.528.204 6.46 6.46 0 0 1-.167.348.404.404 0 0 0 .17.543zm-12.627-4.537a.401.401 0 0 0 .473-.311c.027-.127.057-.252.09-.375a.403.403 0 0 0-.28-.495.402.402 0 0 0-.491.282c-.038.14-.072.28-.102.423a.402.402 0 0 0 .31.476zm3.553 6.618a6.558 6.558 0 0 1-.326-.203.398.398 0 0 0-.554.113.404.404 0 0 0 .113.558c.12.08.243.157.368.229a.4.4 0 0 0 .546-.148.404.404 0 0 0-.147-.55zm-3.466-3.757a.402.402 0 0 0 .392-.487 6.257 6.257 0 0 1-.069-.38.404.404 0 0 0-.455-.338.402.402 0 0 0-.336.458c.021.144.047.287.077.428a.4.4 0 0 0 .391.319zm1.143-5.459a.4.4 0 0 0 .324-.166c.075-.105.154-.207.235-.308a.404.404 0 0 0-.057-.566.4.4 0 0 0-.563.058c-.09.112-.178.226-.263.343a.404.404 0 0 0 .324.639zm-.308 7.896a.399.399 0 0 0 .559.087.404.404 0 0 0 .087-.562 6.454 6.454 0 0 1-.216-.319.399.399 0 0 0-.553-.121.404.404 0 0 0-.12.556c.077.122.158.241.243.359zm2.41-9.81a.399.399 0 0 0 .201-.055c.11-.064.222-.126.337-.184a.403.403 0 0 0 .176-.54.398.398 0 0 0-.537-.178 7.152 7.152 0 0 0-.38.207.404.404 0 0 0 .203.75z"/></g></svg>