<svg xmlns="http://www.w3.org/2000/svg" width="32" height="33"><g fill="#FFF"><path d="M13.97 27.114h-.648c-.22 0-.4.18-.4.402 0 .222.18.403.4.403h.648c.221 0 .4-.18.4-.403a.401.401 0 0 0-.4-.402z"/><path d="M31.217 0H6.747c-.222 0-.4.18-.4.402v6.35H3.564c-.22 0-.4.18-.4.403v4.304H2.71A2.338 2.338 0 0 0 .383 13.8v13.787a2.338 2.338 0 0 0 2.328 2.343h7.296v2.264H8.931c-.221 0-.4.18-.4.403 0 .222.179.402.4.402h8.783c.221 0 .4-.18.4-.402a.401.401 0 0 0-.4-.403h-1.076V29.93h7.294a2.338 2.338 0 0 0 2.328-2.343v-4.954h1.9c1.906 0 3.457-1.56 3.457-3.478V.402a.401.401 0 0 0-.4-.402zM3.965 11.861V7.557h2.381v14.674c0 .223.179.403.4.403h16.99v2.469H3.965V11.86zm-2.782 1.94c0-.848.685-1.537 1.528-1.537h.454v12.839H1.183V13.8zm14.655 18.394h-5.031v-2.264h5.03v2.264zm9.622-4.607c0 .848-.685 1.538-1.528 1.538H2.711c-.843 0-1.528-.69-1.528-1.538v-1.68H25.46v1.68zm0-2.485h-.925v-2.47h.925v2.47zm5.357-5.947a2.668 2.668 0 0 1-2.657 2.673H7.146V5.274h23.67v13.882zm0-14.687H7.147V.805h23.67v3.664z"/><path d="M8.93 3.04h.2c.222 0 .4-.18.4-.403a.401.401 0 0 0-.4-.403h-.2c-.22 0-.4.18-.4.403 0 .222.18.402.4.402zm1.477 0h.426c.22 0 .4-.18.4-.403a.401.401 0 0 0-.4-.403h-.426c-.22 0-.4.18-.4.403 0 .222.18.402.4.402zm1.703 0h.2c.22 0 .4-.18.4-.403a.401.401 0 0 0-.4-.403h-.2c-.222 0-.4.18-.4.403 0 .222.178.402.4.402zM9.982 19.814h18c.22 0 .4-.18.4-.402V7.691a.401.401 0 0 0-.4-.402h-18c-.221 0-.4.18-.4.402v11.721c0 .222.179.402.4.402zm5.351-9.652V8.093h12.249V19.01H15.333v-8.848zm-4.951-2.069h4.151V9.76h-4.151V8.093zm0 2.471h4.151v8.446h-4.151v-8.446z"/><path d="M26.524 16.855h-.6v-5.701a.401.401 0 0 0-.4-.403h-1.9c-.221 0-.4.18-.4.403v5.7h-.4V9.847a.401.401 0 0 0-.4-.403h-1.9c-.221 0-.4.18-.4.403v7.009h-.4V13.55a.401.401 0 0 0-.4-.402h-1.9c-.221 0-.4.18-.4.402v3.304h-.633c-.221 0-.4.18-.4.402 0 .222.179.403.4.403h10.133c.221 0 .4-.18.4-.403a.401.401 0 0 0-.4-.402zm-7.6 0h-1.1v-2.901h1.1v2.9zm3.1 0h-1.1v-6.607h1.1v6.607zm3.1 0h-1.1v-5.299h1.1v5.299z"/></g></svg>