<svg xmlns="http://www.w3.org/2000/svg" width="14" height="14" viewBox="0 0 14 14">
    <g fill="none" fill-rule="evenodd">
        <circle cx="7" cy="7" r="7" fill="#FFF"/>
        <g fill="#000" fill-rule="nonzero" transform="translate(2 2)">
            <path d="M6.3 3.456l.511-.678c.133.055.289.089.445.066.5-.055.866-.51.81-1.01-.055-.5-.51-.867-1.01-.812-.5.056-.867.511-.812 1.011.023.178.09.334.19.467l-.512.678c.134.078.256.178.378.278zM8.922 5.956c-.244.033-.466.155-.61.333l-1.456-.656c-.045.145-.112.29-.19.423l1.467.666c-.01.078-.022.167-.01.256.055.5.51.866 1.01.81.5-.055.867-.51.811-1.01-.066-.522-.522-.878-1.022-.822zM5.822 8.989c-.044-.389-.333-.7-.689-.789l-.022-1.144H5.09c-.145.01-.289.01-.433 0l.01 1.155c-.422.122-.722.533-.666.989.056.5.511.867 1.011.811.5-.067.867-.511.811-1.022zM1.733 5.822c-.189-.278-.51-.444-.855-.4-.5.056-.867.511-.811 1.011.055.5.51.867 1.01.811.49-.055.856-.488.812-.988l1.078-.378c-.067-.134-.123-.278-.156-.434l-1.078.378zM3.144 1.822l.634 1.367c.133-.078.266-.145.422-.2l-.644-1.356c.233-.189.366-.489.333-.81-.056-.5-.511-.867-1.011-.812-.5.056-.867.511-.811 1.011.055.5.51.867 1.01.811.023 0 .045 0 .067-.01z"/>
            <circle cx="4.856" cy="4.978" r="1.578"/>
        </g>
    </g>
</svg>
