<svg xmlns="http://www.w3.org/2000/svg" width="14" height="14">
  <path fill="#FFF" fill-rule="evenodd" d="M7 14A7 7 0 1 1 7 0a7 7 0 0 1 0 14zm3.78-10a.983.983 0 0 0-.99.972c0 .25.1.47.245.644L8.791 7.57a1.139 1.139 0 0 0-.278-.032.936.936 0 0 0-.49.13l-.966-.917a.906.906 0 0 0 .11-.458.983.983 0 0 0-.988-.972.983.983 0 0 0-.99.972c0 .251.09.47.245.644L4.256 8.815a1.115 1.115 0 0 0-.267-.033.983.983 0 0 0-.989.972c0 .535.445.972.99.972.544 0 .988-.437.988-.972a.949.949 0 0 0-.244-.644l1.2-1.867c.09.022.178.032.267.032a.936.936 0 0 0 .489-.13l.967.917a.866.866 0 0 0-.111.447c0 .535.444.972.989.972.545 0 .99-.437.99-.972a.949.949 0 0 0-.245-.644l1.256-1.954c.088.022.177.032.266.032.545 0 .99-.436.99-.971A1.002 1.002 0 0 0 10.78 4z"/>
</svg>
