<svg width="12" height="12" xmlns="http://www.w3.org/2000/svg">
  <path d="M6 0C2.6905263 0 0 2.6905263 0 6s2.6905263 6 6 6 6-2.6905263 6-6-2.6905263-6-6-6zm1.92 6.871579c.2905263.2905263.2905263.7578947 0 1.048421-.1389474.1389474-.328421.2147368-.5178947.2147368-.1894737 0-.3789474-.0757894-.5178948-.2147368L6 7.048421 5.128421 7.92c-.1389473.1389474-.328421.2147368-.5178947.2147368-.1894737 0-.3789473-.0757894-.5178947-.2147368-.2905263-.2905263-.2905263-.7578947 0-1.048421L4.9642106 6l-.871579-.871579c-.2905263-.2905263-.2905263-.7578947 0-1.048421s.7578947-.2905263 1.048421 0l.871579.871579.871579-.871579c.2905262-.2905263.7578947-.2905263 1.048421 0s.2905263.7578947 0 1.048421L7.048421 6 7.92 6.871579z" fill="#FFF" fill-rule="nonzero" opacity=".896875"/>
</svg>
