<svg xmlns="http://www.w3.org/2000/svg" width="47" height="51">
  <defs>
    <linearGradient id="a" x1="26.876%" x2="90.932%" y1="7.849%" y2="91.597%">
      <stop offset="0%" stop-color="#2B5993"/>
      <stop offset="100%" stop-color="#00AEF0"/>
    </linearGradient>
  </defs>
  <g fill="none" fill-rule="evenodd">
    <path fill="url(#a)" d="M44.851 42.362c-2.188-4.864-2.564-8.986-2.623-10.606V18.431C42.228 8.251 33.652 0 23.075 0 12.495 0 3.92 8.252 3.92 18.431V31.95c-.082 1.742-.512 5.738-2.615 10.413-2.827 6.283-.488 5.534 1.608 5.017 2.095-.515 6.775-2.532 8.237-.047 1.46 2.485 2.68 4.643 6.091 3.235 3.412-1.405 5.02-1.874 5.506-1.874h.663c.486 0 2.094.469 5.505 1.874 3.412 1.408 4.63-.75 6.092-3.235 1.462-2.485 6.14-.468 8.236.047 2.096.517 4.434 1.266 1.608-5.017"/>
    <path fill="#FFF" fill-rule="nonzero" stroke="#FFF" stroke-width="1.798" d="M30.767 11.792c-1.323 0-2.404 1.061-2.404 2.361 0 .61.243 1.141.595 1.566l-3.025 4.749a2.767 2.767 0 0 0-.676-.08c-.432 0-.837.106-1.188.319l-2.35-2.229c.19-.318.27-.716.27-1.114 0-1.3-1.08-2.362-2.403-2.362-1.324 0-2.404 1.062-2.404 2.362 0 .61.216 1.14.594 1.565l-2.863 4.563a2.709 2.709 0 0 0-.648-.08c-1.323 0-2.403 1.062-2.403 2.362s1.08 2.361 2.403 2.361c1.324 0 2.404-1.06 2.404-2.36 0-.611-.216-1.142-.594-1.566l2.917-4.537c.216.053.432.08.648.08.432 0 .837-.107 1.188-.319l2.35 2.229c-.19.318-.27.69-.27 1.088 0 1.3 1.08 2.36 2.403 2.36 1.324 0 2.404-1.06 2.404-2.36 0-.61-.216-1.141-.594-1.566l3.052-4.749c.216.053.432.08.648.08 1.323 0 2.404-1.062 2.404-2.362-.027-1.3-1.108-2.36-2.458-2.36z"/>
  </g>
</svg>
